<svg width="20" height="20" viewBox="0 0 20 20" fill="none" xmlns="http://www.w3.org/2000/svg">
<path d="M16.6673 10.834V5.00065C16.6673 4.55862 16.4917 4.1347 16.1792 3.82214C15.8666 3.50958 15.4427 3.33398 15.0007 3.33398H5.00065C4.55862 3.33398 4.1347 3.50958 3.82214 3.82214C3.50958 4.1347 3.33398 4.55862 3.33398 5.00065V10.834M16.6673 10.834V15.0007C16.6673 15.4427 16.4917 15.8666 16.1792 16.1792C15.8666 16.4917 15.4427 16.6673 15.0007 16.6673H5.00065C4.55862 16.6673 4.1347 16.4917 3.82214 16.1792C3.50958 15.8666 3.33398 15.4427 3.33398 15.0007V10.834M16.6673 10.834H14.5123C14.2913 10.834 14.0794 10.9219 13.9232 11.0782L11.9115 13.0898C11.7552 13.2461 11.5433 13.3339 11.3223 13.334H8.67898C8.45799 13.3339 8.24606 13.2461 8.08982 13.0898L6.07815 11.0782C5.92191 10.9219 5.70998 10.834 5.48898 10.834H3.33398" stroke="black" stroke-width="2" stroke-linecap="round" stroke-linejoin="round"/>
</svg>
