<svg width="20" height="20" viewBox="0 0 20 20" fill="none" xmlns="http://www.w3.org/2000/svg">
<path d="M7.49935 5.83333H12.4993M12.4993 14.1667V11.6667M9.99935 14.1667H10.0077M7.49935 14.1667H7.50768M7.49935 11.6667H7.50768M9.99935 11.6667H10.0077M12.4993 9.16667H12.5077M9.99935 9.16667H10.0077M7.49935 9.16667H7.50768M5.83268 17.5H14.166C14.608 17.5 15.032 17.3244 15.3445 17.0118C15.6571 16.6993 15.8327 16.2754 15.8327 15.8333V4.16667C15.8327 3.72464 15.6571 3.30072 15.3445 2.98816C15.032 2.67559 14.608 2.5 14.166 2.5H5.83268C5.39065 2.5 4.96673 2.67559 4.65417 2.98816C4.34161 3.30072 4.16602 3.72464 4.16602 4.16667V15.8333C4.16602 16.2754 4.34161 16.6993 4.65417 17.0118C4.96673 17.3244 5.39065 17.5 5.83268 17.5Z" stroke="black" stroke-width="2" stroke-linecap="round" stroke-linejoin="round"/>
</svg>
