<svg width="20" height="20" viewBox="0 0 20 20" fill="none" xmlns="http://www.w3.org/2000/svg">
<path d="M7.49935 14.1667V12.5M9.99935 14.1667V10.8333M12.4993 14.1667V9.16667M14.166 17.5H5.83268C5.39065 17.5 4.96673 17.3244 4.65417 17.0118C4.34161 16.6993 4.16602 16.2754 4.16602 15.8333V4.16667C4.16602 3.72464 4.34161 3.30072 4.65417 2.98816C4.96673 2.67559 5.39065 2.5 5.83268 2.5H10.4877C10.7087 2.50005 10.9206 2.58788 11.0768 2.74417L15.5885 7.25583C15.7448 7.41208 15.8326 7.624 15.8327 7.845V15.8333C15.8327 16.2754 15.6571 16.6993 15.3445 17.0118C15.032 17.3244 14.608 17.5 14.166 17.5Z" stroke="black" stroke-width="2" stroke-linecap="round" stroke-linejoin="round"/>
</svg>
